<?xml version="1.0" encoding="UTF-8"?>
<svg version="1.1" viewBox="0 0 960 960" xml:space="preserve" xmlns="http://www.w3.org/2000/svg" xmlns:xlink="http://www.w3.org/1999/xlink"><defs><linearGradient id="b" x1="87.16" x2="172.6" y1="-453.38" y2="-453.38" gradientTransform="matrix(81.838 0 0 -78 87.16 377.94)" gradientUnits="userSpaceOnUse"><stop stop-color="#006fe7" offset="0"/><stop stop-color="#0242b3" offset="1"/></linearGradient><filter id="c" x="-.049479" y="-.039088" width="1.099" height="1.0782" color-interpolation-filters="sRGB"><feFlood flood-color="rgb(0,0,0)" flood-opacity=".50196" result="flood"/><feComposite in="flood" in2="SourceGraphic" operator="in" result="composite1"/><feGaussianBlur in="composite1" result="blur" stdDeviation="10"/><feOffset dx="0" dy="0" result="offset"/><feComposite in="SourceGraphic" in2="offset" result="fbSourceGraphic"/><feColorMatrix in="fbSourceGraphic" result="fbSourceGraphicAlpha" values="0 0 0 -1 0 0 0 0 -1 0 0 0 0 -1 0 0 0 0 1 0"/><feFlood flood-color="rgb(0,0,0)" flood-opacity=".50196" in="fbSourceGraphic" result="flood"/><feComposite in="flood" in2="fbSourceGraphic" operator="in" result="composite1"/><feGaussianBlur in="composite1" result="blur" stdDeviation="5"/><feOffset dx="0" dy="0" result="offset"/><feComposite in="fbSourceGraphic" in2="offset" result="composite2"/></filter><linearGradient id="a" x1="172.6" x2="632.84" y1="-446.42" y2="-446.42" gradientTransform="matrix(1.3333 0 0 1.3333 -34.402 781.43)" gradientUnits="userSpaceOnUse"><stop stop-color="#0c0b81" offset="0"/><stop stop-color="#100ea8" offset=".037263"/><stop stop-color="#2832e7" offset="1"/></linearGradient></defs><g transform="matrix(1.3333 0 0 -1.3333 0 960)" stroke-linecap="round" stroke-linejoin="round"><path transform="matrix(.75 0 0 -.75 25.802 766.28)" d="m104.6 81.209c-12.627 0-22.793 10.166-22.793 22.793v875.41c0 12.627 10.166 22.793 22.793 22.793h636.6c37.77 0 68.178-30.406 68.178-68.176v-784.64c0-37.77-30.408-68.176-68.178-68.176h-591.22z" fill="url(#a)" filter="url(#c)" stroke-width="3.1111"/><rect transform="scale(1,-1)" x="87.16" y="-705.37" width="85.442" height="690.75" ry="17.095" fill="url(#b)" stroke-width=".75"/><path d="m273.53 240.07v239.86l110.2-90.756 110.2 90.756v-239.86" fill="none" stroke="#fff" stroke-miterlimit="10" stroke-width="66.349"/></g></svg>